<svg xmlns="http://www.w3.org/2000/svg" viewBox="0 0 478.11 534.03"><defs><style>.cls-1{fill:#006934;}</style></defs><title>資產 3</title><g id="圖層_2" data-name="圖層 2"><g id="圖層_1-2" data-name="圖層 1"><path class="cls-1" d="M450.64,245.1A190.22,190.22,0,0,0,287.7,153.21q-8.2,0-16.24.71-5.73,1-11.34,2.41a181.73,181.73,0,0,0-115.38,89.13c-.45.78-.88,1.57-1.28,2.37a11,11,0,0,0,.34,9,10.55,10.55,0,0,0,2,2.93c.46.38.9.79,1.33,1.18a118.38,118.38,0,0,1,39,88c0,28.42-17.25,56-34.22,76.49-.41.46-.77.92-1.17,1.38-.22.23-.41.49-.63.73a11.28,11.28,0,0,0-.61,12.88c.32.46.62.88.94,1.29q5,6.8,10.62,13.06s33.24,41.69,9.57,31.78c-10.62-4.46-21.25-13.06-36.91-27.36-17.75-16.19-33-34.57-47.37-77.6-9-26.93-20.36-91.26,19.58-163a450.76,450.76,0,0,1,44.89-61.18c26.25-30.13,55.32-55,83.31-70.11a158,158,0,0,1,20.67-9.43C305.79,59.08,310,58.37,347.5,57c30.76-1.42,42.74-6.42,45.75-9.63a11.28,11.28,0,0,0,3.1-15s-.05,0-.05,0c-.88-1.05-1.83-2.09-2.77-3.09A92.25,92.25,0,0,0,279.82,12.49c-4.38,3-8.72,6.07-13,9.2A578.66,578.66,0,0,0,93.47,223.33c-1.75,3.42-3.5,6.83-5.19,10.29,1.62-26.1,16.14-46.33,23.82-63s12.71-28,11.8-57.28C119.3,61,68.11,29.22,68.11,29.22s11.07,31.66,2.57,55.53-18.23,37.37-23.82,56.19-6.23,39,6.5,61.56,30.31,34.13,24.3,57.16c0,0,0,0,0,.07a210,210,0,0,0-7.14,100.54l0-.11c-40-58.69-68.11-73.7-68.11-73.7s-6.77,18.37,2.77,69S44.34,426.74,55.28,436c14.9,8.77,27.25,17.87,37.12,14.12,7.89-4.47,3.94-9.41,11.24-8A208.75,208.75,0,0,0,272,533.39c5.15.43,10.39.64,15.66.64A190.41,190.41,0,0,0,450.64,245.1ZM295.71,504.3a170.75,170.75,0,0,1-54.49-8.9,1.21,1.21,0,0,1-.14,0,171,171,0,0,1-45.46-23.55c-18.47-22.46,1.11-52,8.34-76.83,4.95-14,9.22-40.51,8.84-62.57-1-14,5.3-48.44-37.14-90.86,0,0,43.32-99.8,136.54-28.61,8.78,8.28,11.89,17.48,11.89,22.77a24,24,0,0,1-5,14.19L316,253.35c-2,2.07-21.71,23-77.77,39.1-12.36,3.53-7.23,21.75,6.91,16.62s79.88-29.69,124.12,1c.41.25.79.54,1.19.81a64.59,64.59,0,0,1,13,93.18v0c-1.16,2-49.82,84.15-170.86,31.22-7.8-3-5.68,4.61-2.67,7.94s92.29,61.25,181.39-10.71C418.41,405.05,444,350.59,383.41,299c-19.64-17-58.52-25.5-64.72-24.44,8.49-5.67,40-30.42,22.29-61C331.2,196.71,314.4,186.5,298.37,180c-2.91-.93-5.72-2-8.49-3.16-9.83-3.38-18.82-5.47-24.93-7.09,1.39-.29,4.16-1.2,8.13-2.32a167.36,167.36,0,0,1,16.35-3.72c2.07-.08,4.18-.13,6.28-.13a170.37,170.37,0,1,1,0,340.73Z"/></g></g></svg>