<?xml version="1.0" encoding="iso-8859-1"?>
<!-- Generator: Adobe Illustrator 17.1.0, SVG Export Plug-In . SVG Version: 6.00 Build 0)  -->
<!DOCTYPE svg PUBLIC "-//W3C//DTD SVG 1.1//EN" "http://www.w3.org/Graphics/SVG/1.1/DTD/svg11.dtd">
<svg version="1.1" id="Capa_1" xmlns="http://www.w3.org/2000/svg" xmlns:xlink="http://www.w3.org/1999/xlink" x="0px" y="0px"
	 viewBox="0 0 487.866 487.866" style="enable-background:new 0 0 487.866 487.866;" xml:space="preserve">
<path d="M263.826,184.498v121.361c-21.692,11.618-35.539,34.543-35.539,59.277c0,21.953,10.762,42.568,28.79,55.145
	c0.855,0.597,1.856,0.899,2.861,0.899c0.791,0,1.584-0.188,2.312-0.566c1.651-0.862,2.688-2.57,2.688-4.434l0.003-39.063
	l30.543-15.281l30.545,15.281v39.063c0,1.863,1.036,3.571,2.688,4.433c1.652,0.863,3.646,0.733,5.173-0.332
	c18.027-12.576,28.79-33.191,28.79-55.145c0-24.734-13.848-47.659-35.54-59.277V184.498c21.692-11.618,35.54-34.543,35.54-59.277
	c0-21.953-10.763-42.567-28.79-55.146c-1.527-1.066-3.521-1.192-5.173-0.333c-1.652,0.862-2.688,2.57-2.688,4.434l-0.002,39.064
	l-30.544,15.281l-30.545-15.281V74.176c0-1.863-1.036-3.571-2.688-4.434c-1.652-0.86-3.645-0.733-5.173,0.333
	c-18.027,12.577-28.79,33.192-28.79,55.146C228.287,149.955,242.134,172.88,263.826,184.498z M254.937,84.883v31.447
	c0,1.894,1.069,3.625,2.763,4.472l35.545,17.782c1.408,0.705,3.066,0.705,4.474,0l35.544-17.782
	c1.693-0.847,2.763-2.578,2.763-4.472l0.002-31.448c10.563,10.632,16.651,25.107,16.651,40.339c0,21.963-12.83,42.251-32.686,51.687
	c-1.743,0.828-2.854,2.586-2.854,4.516v127.512c0,1.93,1.111,3.688,2.854,4.516c19.855,9.436,32.686,29.724,32.686,51.687
	c0,15.23-6.088,29.707-16.651,40.338v-31.447c0-1.894-1.069-3.625-2.763-4.472l-35.545-17.782c-1.408-0.705-3.066-0.705-4.474,0
	l-35.543,17.782c-1.693,0.847-2.763,2.578-2.763,4.472l-0.002,31.448c-10.564-10.631-16.651-25.106-16.651-40.339
	c0-21.964,12.83-42.251,32.685-51.687c1.743-0.828,2.854-2.586,2.854-4.516V181.423c0-1.93-1.111-3.688-2.854-4.516
	c-19.855-9.436-32.685-29.723-32.685-51.687C238.287,109.99,244.375,95.514,254.937,84.883z M431.544,0H123.577H56.322
	c-2.761,0-5,2.238-5,5v477.866c0,2.762,2.239,5,5,5h67.254h307.967c2.761,0,5-2.238,5-5V5C436.544,2.238,434.305,0,431.544,0z
	 M61.322,477.866V10h57.254v467.866H61.322z M426.544,477.866H166.173v-9.063c0-2.762-2.239-5-5-5s-5,2.238-5,5v9.063h-27.596V10
	h27.596v428.784c0,2.762,2.239,5,5,5s5-2.238,5-5V10h260.371V477.866z M88.233,37.658c-10.224,0-18.542,8.318-18.542,18.542
	s8.318,18.541,18.542,18.541s18.542-8.317,18.542-18.541S98.457,37.658,88.233,37.658z M88.233,64.741
	c-4.71,0-8.542-3.831-8.542-8.541s3.832-8.542,8.542-8.542s8.542,3.832,8.542,8.542S92.943,64.741,88.233,64.741z M88.233,417.766
	c-10.224,0-18.542,8.318-18.542,18.542s8.318,18.541,18.542,18.541s18.542-8.317,18.542-18.541S98.457,417.766,88.233,417.766z
	 M88.233,444.849c-4.71,0-8.542-3.831-8.542-8.541s3.832-8.542,8.542-8.542s8.542,3.832,8.542,8.542S92.943,444.849,88.233,444.849z
	 M281.597,297.059V193.552c0-2.762,2.239-5,5-5h17.771c2.761,0,5,2.238,5,5v71.702c0,2.762-2.239,5-5,5s-5-2.238-5-5v-66.702h-7.771
	v93.507h7.771v-0.756c0-2.762,2.239-5,5-5s5,2.238,5,5v5.756c0,2.762-2.239,5-5,5h-17.771
	C283.836,302.059,281.597,299.82,281.597,297.059z"/>
<g>
</g>
<g>
</g>
<g>
</g>
<g>
</g>
<g>
</g>
<g>
</g>
<g>
</g>
<g>
</g>
<g>
</g>
<g>
</g>
<g>
</g>
<g>
</g>
<g>
</g>
<g>
</g>
<g>
</g>
</svg>
